<mxfile host="app.diagrams.net" modified="2022-10-27T13:39:48.357Z" agent="5.0 (Windows NT 10.0; Win64; x64) AppleWebKit/537.36 (KHTML, like Gecko) Chrome/106.0.0.0 Safari/537.36" etag="apN0XClfzpyzNVv2bEpr" version="20.5.1" type="github">
  <diagram id="ZYkeduv5X5LQzHFZs05k" name="Página-1">
    <mxGraphModel dx="1102" dy="1751" grid="1" gridSize="10" guides="1" tooltips="1" connect="1" arrows="1" fold="1" page="1" pageScale="1" pageWidth="827" pageHeight="1169" math="0" shadow="0">
      <root>
        <mxCell id="0" />
        <mxCell id="1" parent="0" />
        <mxCell id="TOGXgayF-nrnIG1DAqdI-1" value="Parque de diversão" style="whiteSpace=wrap;html=1;align=center;" vertex="1" parent="1">
          <mxGeometry x="350" y="210" width="100" height="40" as="geometry" />
        </mxCell>
        <mxCell id="TOGXgayF-nrnIG1DAqdI-2" value="Nome" style="ellipse;whiteSpace=wrap;html=1;align=center;" vertex="1" parent="1">
          <mxGeometry x="460" y="150" width="100" height="40" as="geometry" />
        </mxCell>
        <mxCell id="TOGXgayF-nrnIG1DAqdI-3" value="Preço do ingresso" style="ellipse;whiteSpace=wrap;html=1;align=center;" vertex="1" parent="1">
          <mxGeometry x="230" y="160" width="100" height="40" as="geometry" />
        </mxCell>
        <mxCell id="TOGXgayF-nrnIG1DAqdI-4" value="Endereço" style="ellipse;whiteSpace=wrap;html=1;align=center;" vertex="1" parent="1">
          <mxGeometry x="430" y="100" width="100" height="40" as="geometry" />
        </mxCell>
        <mxCell id="TOGXgayF-nrnIG1DAqdI-5" value="" style="endArrow=none;html=1;rounded=0;exitX=0.5;exitY=1;exitDx=0;exitDy=0;entryX=0.6;entryY=0;entryDx=0;entryDy=0;entryPerimeter=0;" edge="1" parent="1" source="TOGXgayF-nrnIG1DAqdI-4" target="TOGXgayF-nrnIG1DAqdI-1">
          <mxGeometry relative="1" as="geometry">
            <mxPoint x="330" y="290" as="sourcePoint" />
            <mxPoint x="490" y="290" as="targetPoint" />
          </mxGeometry>
        </mxCell>
        <mxCell id="TOGXgayF-nrnIG1DAqdI-6" value="" style="endArrow=none;html=1;rounded=0;exitX=0.72;exitY=1;exitDx=0;exitDy=0;exitPerimeter=0;" edge="1" parent="1" source="TOGXgayF-nrnIG1DAqdI-3" target="TOGXgayF-nrnIG1DAqdI-1">
          <mxGeometry relative="1" as="geometry">
            <mxPoint x="330" y="290" as="sourcePoint" />
            <mxPoint x="490" y="290" as="targetPoint" />
          </mxGeometry>
        </mxCell>
        <mxCell id="TOGXgayF-nrnIG1DAqdI-7" value="" style="endArrow=none;html=1;rounded=0;exitX=0;exitY=1;exitDx=0;exitDy=0;entryX=0.83;entryY=-0.05;entryDx=0;entryDy=0;entryPerimeter=0;" edge="1" parent="1" source="TOGXgayF-nrnIG1DAqdI-2" target="TOGXgayF-nrnIG1DAqdI-1">
          <mxGeometry relative="1" as="geometry">
            <mxPoint x="420" y="170" as="sourcePoint" />
            <mxPoint x="390.57142857142867" y="220" as="targetPoint" />
          </mxGeometry>
        </mxCell>
        <mxCell id="TOGXgayF-nrnIG1DAqdI-9" value="" style="endArrow=none;html=1;rounded=0;exitX=1;exitY=0.5;exitDx=0;exitDy=0;entryX=0;entryY=0.5;entryDx=0;entryDy=0;" edge="1" parent="1" source="TOGXgayF-nrnIG1DAqdI-1" target="TOGXgayF-nrnIG1DAqdI-33">
          <mxGeometry relative="1" as="geometry">
            <mxPoint x="330" y="300" as="sourcePoint" />
            <mxPoint x="550" y="230" as="targetPoint" />
          </mxGeometry>
        </mxCell>
        <mxCell id="TOGXgayF-nrnIG1DAqdI-12" value="Parceiro" style="whiteSpace=wrap;html=1;align=center;" vertex="1" parent="1">
          <mxGeometry x="810" y="210" width="100" height="40" as="geometry" />
        </mxCell>
        <mxCell id="TOGXgayF-nrnIG1DAqdI-13" value="" style="endArrow=none;html=1;rounded=0;exitX=1;exitY=0.5;exitDx=0;exitDy=0;entryX=0;entryY=0.5;entryDx=0;entryDy=0;" edge="1" parent="1" source="TOGXgayF-nrnIG1DAqdI-33" target="TOGXgayF-nrnIG1DAqdI-12">
          <mxGeometry relative="1" as="geometry">
            <mxPoint x="680" y="230" as="sourcePoint" />
            <mxPoint x="700" y="230" as="targetPoint" />
          </mxGeometry>
        </mxCell>
        <mxCell id="TOGXgayF-nrnIG1DAqdI-16" value="0, N" style="text;html=1;align=center;verticalAlign=middle;resizable=0;points=[];autosize=1;strokeColor=none;fillColor=none;" vertex="1" parent="1">
          <mxGeometry x="770" y="200" width="50" height="30" as="geometry" />
        </mxCell>
        <mxCell id="TOGXgayF-nrnIG1DAqdI-17" value="0, N" style="text;html=1;align=center;verticalAlign=middle;resizable=0;points=[];autosize=1;strokeColor=none;fillColor=none;" vertex="1" parent="1">
          <mxGeometry x="440" y="200" width="50" height="30" as="geometry" />
        </mxCell>
        <mxCell id="TOGXgayF-nrnIG1DAqdI-18" value="Nome" style="ellipse;whiteSpace=wrap;html=1;align=center;" vertex="1" parent="1">
          <mxGeometry x="745" y="280" width="100" height="40" as="geometry" />
        </mxCell>
        <mxCell id="TOGXgayF-nrnIG1DAqdI-20" value="CNPJ" style="ellipse;whiteSpace=wrap;html=1;align=center;fontStyle=4;" vertex="1" parent="1">
          <mxGeometry x="890" y="280" width="100" height="40" as="geometry" />
        </mxCell>
        <mxCell id="TOGXgayF-nrnIG1DAqdI-21" value="" style="endArrow=none;html=1;rounded=0;exitX=0.5;exitY=0;exitDx=0;exitDy=0;entryX=0.25;entryY=1;entryDx=0;entryDy=0;" edge="1" parent="1" source="TOGXgayF-nrnIG1DAqdI-18" target="TOGXgayF-nrnIG1DAqdI-12">
          <mxGeometry relative="1" as="geometry">
            <mxPoint x="700" y="270" as="sourcePoint" />
            <mxPoint x="860" y="270" as="targetPoint" />
          </mxGeometry>
        </mxCell>
        <mxCell id="TOGXgayF-nrnIG1DAqdI-22" value="" style="endArrow=none;html=1;rounded=0;entryX=0.75;entryY=1;entryDx=0;entryDy=0;" edge="1" parent="1" source="TOGXgayF-nrnIG1DAqdI-20" target="TOGXgayF-nrnIG1DAqdI-12">
          <mxGeometry relative="1" as="geometry">
            <mxPoint x="710" y="290" as="sourcePoint" />
            <mxPoint x="745" y="260" as="targetPoint" />
          </mxGeometry>
        </mxCell>
        <mxCell id="TOGXgayF-nrnIG1DAqdI-23" value="Valor do investimento" style="ellipse;whiteSpace=wrap;html=1;align=center;" vertex="1" parent="1">
          <mxGeometry x="480" y="300" width="100" height="40" as="geometry" />
        </mxCell>
        <mxCell id="TOGXgayF-nrnIG1DAqdI-24" value="Percentual arrecadação" style="ellipse;whiteSpace=wrap;html=1;align=center;" vertex="1" parent="1">
          <mxGeometry x="565" y="360" width="105" height="40" as="geometry" />
        </mxCell>
        <mxCell id="TOGXgayF-nrnIG1DAqdI-25" value="Arrecadação diária" style="ellipse;whiteSpace=wrap;html=1;align=center;" vertex="1" parent="1">
          <mxGeometry x="640" y="300" width="100" height="40" as="geometry" />
        </mxCell>
        <mxCell id="TOGXgayF-nrnIG1DAqdI-26" value="" style="endArrow=none;html=1;rounded=0;exitX=0.5;exitY=0;exitDx=0;exitDy=0;entryX=0.5;entryY=1;entryDx=0;entryDy=0;" edge="1" parent="1" source="TOGXgayF-nrnIG1DAqdI-24">
          <mxGeometry relative="1" as="geometry">
            <mxPoint x="650" y="370" as="sourcePoint" />
            <mxPoint x="620" y="260" as="targetPoint" />
          </mxGeometry>
        </mxCell>
        <mxCell id="TOGXgayF-nrnIG1DAqdI-27" value="" style="endArrow=none;html=1;rounded=0;exitX=0;exitY=1;exitDx=0;exitDy=0;entryX=0.5;entryY=0;entryDx=0;entryDy=0;" edge="1" parent="1" target="TOGXgayF-nrnIG1DAqdI-23">
          <mxGeometry relative="1" as="geometry">
            <mxPoint x="590" y="245" as="sourcePoint" />
            <mxPoint x="630" y="270" as="targetPoint" />
          </mxGeometry>
        </mxCell>
        <mxCell id="TOGXgayF-nrnIG1DAqdI-28" value="" style="endArrow=none;html=1;rounded=0;exitX=1;exitY=1;exitDx=0;exitDy=0;entryX=0.5;entryY=0;entryDx=0;entryDy=0;" edge="1" parent="1" target="TOGXgayF-nrnIG1DAqdI-25">
          <mxGeometry relative="1" as="geometry">
            <mxPoint x="650" y="245" as="sourcePoint" />
            <mxPoint x="610" y="315" as="targetPoint" />
          </mxGeometry>
        </mxCell>
        <mxCell id="TOGXgayF-nrnIG1DAqdI-30" value="" style="endArrow=none;html=1;rounded=0;exitX=0.5;exitY=1;exitDx=0;exitDy=0;entryX=0.5;entryY=0;entryDx=0;entryDy=0;entryPerimeter=0;" edge="1" parent="1" source="TOGXgayF-nrnIG1DAqdI-1" target="TOGXgayF-nrnIG1DAqdI-36">
          <mxGeometry relative="1" as="geometry">
            <mxPoint x="340" y="370" as="sourcePoint" />
            <mxPoint x="400" y="360" as="targetPoint" />
          </mxGeometry>
        </mxCell>
        <mxCell id="TOGXgayF-nrnIG1DAqdI-31" value="Turista" style="whiteSpace=wrap;html=1;align=center;" vertex="1" parent="1">
          <mxGeometry x="350" y="530" width="100" height="40" as="geometry" />
        </mxCell>
        <mxCell id="TOGXgayF-nrnIG1DAqdI-32" value="" style="endArrow=none;html=1;rounded=0;exitX=0.5;exitY=1;exitDx=0;exitDy=0;entryX=0.5;entryY=0;entryDx=0;entryDy=0;" edge="1" parent="1" source="TOGXgayF-nrnIG1DAqdI-36" target="TOGXgayF-nrnIG1DAqdI-31">
          <mxGeometry relative="1" as="geometry">
            <mxPoint x="400" y="420" as="sourcePoint" />
            <mxPoint x="540" y="370" as="targetPoint" />
          </mxGeometry>
        </mxCell>
        <mxCell id="TOGXgayF-nrnIG1DAqdI-33" value="Parceria" style="shape=associativeEntity;whiteSpace=wrap;html=1;align=center;" vertex="1" parent="1">
          <mxGeometry x="560" y="200" width="140" height="60" as="geometry" />
        </mxCell>
        <mxCell id="TOGXgayF-nrnIG1DAqdI-35" value="0,N" style="text;html=1;align=center;verticalAlign=middle;resizable=0;points=[];autosize=1;strokeColor=none;fillColor=none;" vertex="1" parent="1">
          <mxGeometry x="365" y="500" width="40" height="30" as="geometry" />
        </mxCell>
        <mxCell id="TOGXgayF-nrnIG1DAqdI-36" value="Visita" style="shape=associativeEntity;whiteSpace=wrap;html=1;align=center;" vertex="1" parent="1">
          <mxGeometry x="330" y="360" width="140" height="60" as="geometry" />
        </mxCell>
        <mxCell id="TOGXgayF-nrnIG1DAqdI-37" value="0,N" style="text;html=1;align=center;verticalAlign=middle;resizable=0;points=[];autosize=1;strokeColor=none;fillColor=none;" vertex="1" parent="1">
          <mxGeometry x="365" y="250" width="40" height="30" as="geometry" />
        </mxCell>
        <mxCell id="TOGXgayF-nrnIG1DAqdI-38" value="CNPJ" style="ellipse;whiteSpace=wrap;html=1;align=center;fontStyle=4;" vertex="1" parent="1">
          <mxGeometry x="250" y="100" width="100" height="40" as="geometry" />
        </mxCell>
        <mxCell id="TOGXgayF-nrnIG1DAqdI-39" value="" style="endArrow=none;html=1;rounded=0;exitX=0.58;exitY=1.075;exitDx=0;exitDy=0;exitPerimeter=0;" edge="1" parent="1" source="TOGXgayF-nrnIG1DAqdI-38">
          <mxGeometry relative="1" as="geometry">
            <mxPoint x="460" y="110" as="sourcePoint" />
            <mxPoint x="380" y="210" as="targetPoint" />
          </mxGeometry>
        </mxCell>
        <mxCell id="TOGXgayF-nrnIG1DAqdI-40" value="CPF" style="ellipse;whiteSpace=wrap;html=1;align=center;fontStyle=4;" vertex="1" parent="1">
          <mxGeometry x="450" y="600" width="100" height="40" as="geometry" />
        </mxCell>
        <mxCell id="TOGXgayF-nrnIG1DAqdI-41" value="Nome" style="ellipse;whiteSpace=wrap;html=1;align=center;" vertex="1" parent="1">
          <mxGeometry x="350" y="640" width="100" height="40" as="geometry" />
        </mxCell>
        <mxCell id="TOGXgayF-nrnIG1DAqdI-42" value="Endereço" style="ellipse;whiteSpace=wrap;html=1;align=center;" vertex="1" parent="1">
          <mxGeometry x="234" y="600" width="100" height="40" as="geometry" />
        </mxCell>
        <mxCell id="TOGXgayF-nrnIG1DAqdI-43" value="" style="endArrow=none;html=1;rounded=0;exitX=0.5;exitY=0;exitDx=0;exitDy=0;entryX=0;entryY=1;entryDx=0;entryDy=0;" edge="1" parent="1" source="TOGXgayF-nrnIG1DAqdI-42" target="TOGXgayF-nrnIG1DAqdI-31">
          <mxGeometry relative="1" as="geometry">
            <mxPoint x="340" y="490" as="sourcePoint" />
            <mxPoint x="500" y="490" as="targetPoint" />
          </mxGeometry>
        </mxCell>
        <mxCell id="TOGXgayF-nrnIG1DAqdI-44" value="" style="endArrow=none;html=1;rounded=0;exitX=0.5;exitY=0;exitDx=0;exitDy=0;entryX=0.5;entryY=1;entryDx=0;entryDy=0;" edge="1" parent="1" source="TOGXgayF-nrnIG1DAqdI-41" target="TOGXgayF-nrnIG1DAqdI-31">
          <mxGeometry relative="1" as="geometry">
            <mxPoint x="294" y="610" as="sourcePoint" />
            <mxPoint x="360" y="580" as="targetPoint" />
          </mxGeometry>
        </mxCell>
        <mxCell id="TOGXgayF-nrnIG1DAqdI-45" value="" style="endArrow=none;html=1;rounded=0;entryX=1;entryY=1;entryDx=0;entryDy=0;" edge="1" parent="1" source="TOGXgayF-nrnIG1DAqdI-40" target="TOGXgayF-nrnIG1DAqdI-31">
          <mxGeometry relative="1" as="geometry">
            <mxPoint x="410" y="650" as="sourcePoint" />
            <mxPoint x="410" y="580" as="targetPoint" />
          </mxGeometry>
        </mxCell>
        <mxCell id="TOGXgayF-nrnIG1DAqdI-47" value="Data/hora de saída" style="ellipse;whiteSpace=wrap;html=1;align=center;" vertex="1" parent="1">
          <mxGeometry x="250" y="460" width="100" height="40" as="geometry" />
        </mxCell>
        <mxCell id="TOGXgayF-nrnIG1DAqdI-49" value="" style="endArrow=none;html=1;rounded=0;entryX=0.25;entryY=1;entryDx=0;entryDy=0;exitX=0.79;exitY=0;exitDx=0;exitDy=0;exitPerimeter=0;" edge="1" parent="1" source="TOGXgayF-nrnIG1DAqdI-47" target="TOGXgayF-nrnIG1DAqdI-36">
          <mxGeometry relative="1" as="geometry">
            <mxPoint x="284" y="445" as="sourcePoint" />
            <mxPoint x="360" y="430" as="targetPoint" />
          </mxGeometry>
        </mxCell>
        <mxCell id="TOGXgayF-nrnIG1DAqdI-50" value="" style="endArrow=none;html=1;rounded=0;entryX=0;entryY=0.75;entryDx=0;entryDy=0;exitX=1;exitY=0.5;exitDx=0;exitDy=0;exitPerimeter=0;" edge="1" parent="1" source="TOGXgayF-nrnIG1DAqdI-86" target="TOGXgayF-nrnIG1DAqdI-36">
          <mxGeometry relative="1" as="geometry">
            <mxPoint x="270" y="390" as="sourcePoint" />
            <mxPoint x="330" y="358" as="targetPoint" />
          </mxGeometry>
        </mxCell>
        <mxCell id="TOGXgayF-nrnIG1DAqdI-51" value="Número do cartão" style="ellipse;whiteSpace=wrap;html=1;align=center;" vertex="1" parent="1">
          <mxGeometry x="160" y="320" width="100" height="40" as="geometry" />
        </mxCell>
        <mxCell id="TOGXgayF-nrnIG1DAqdI-52" value="Valor do ingresso" style="ellipse;whiteSpace=wrap;html=1;align=center;" vertex="1" parent="1">
          <mxGeometry x="230" y="270" width="100" height="40" as="geometry" />
        </mxCell>
        <mxCell id="TOGXgayF-nrnIG1DAqdI-53" value="" style="endArrow=none;html=1;rounded=0;exitX=1;exitY=0.5;exitDx=0;exitDy=0;entryX=0;entryY=0.25;entryDx=0;entryDy=0;" edge="1" parent="1" source="TOGXgayF-nrnIG1DAqdI-51" target="TOGXgayF-nrnIG1DAqdI-36">
          <mxGeometry relative="1" as="geometry">
            <mxPoint x="280" y="410" as="sourcePoint" />
            <mxPoint x="340" y="415" as="targetPoint" />
          </mxGeometry>
        </mxCell>
        <mxCell id="TOGXgayF-nrnIG1DAqdI-54" value="" style="endArrow=none;html=1;rounded=0;entryX=0.121;entryY=-0.05;entryDx=0;entryDy=0;entryPerimeter=0;" edge="1" parent="1" source="TOGXgayF-nrnIG1DAqdI-52" target="TOGXgayF-nrnIG1DAqdI-36">
          <mxGeometry relative="1" as="geometry">
            <mxPoint x="270" y="350" as="sourcePoint" />
            <mxPoint x="340" y="385" as="targetPoint" />
          </mxGeometry>
        </mxCell>
        <mxCell id="TOGXgayF-nrnIG1DAqdI-56" value="Despesas" style="shape=associativeEntity;whiteSpace=wrap;html=1;align=center;" vertex="1" parent="1">
          <mxGeometry x="790" y="520" width="140" height="60" as="geometry" />
        </mxCell>
        <mxCell id="TOGXgayF-nrnIG1DAqdI-58" value="" style="endArrow=none;html=1;rounded=0;exitX=0.5;exitY=1;exitDx=0;exitDy=0;entryX=0.5;entryY=0;entryDx=0;entryDy=0;" edge="1" parent="1" source="TOGXgayF-nrnIG1DAqdI-12" target="TOGXgayF-nrnIG1DAqdI-56">
          <mxGeometry relative="1" as="geometry">
            <mxPoint x="670" y="480" as="sourcePoint" />
            <mxPoint x="830" y="480" as="targetPoint" />
          </mxGeometry>
        </mxCell>
        <mxCell id="TOGXgayF-nrnIG1DAqdI-59" value="Valor" style="ellipse;whiteSpace=wrap;html=1;align=center;" vertex="1" parent="1">
          <mxGeometry x="810" y="630" width="100" height="40" as="geometry" />
        </mxCell>
        <mxCell id="TOGXgayF-nrnIG1DAqdI-60" value="" style="endArrow=none;html=1;rounded=0;exitX=0.5;exitY=1;exitDx=0;exitDy=0;entryX=0.5;entryY=0;entryDx=0;entryDy=0;" edge="1" parent="1" source="TOGXgayF-nrnIG1DAqdI-56" target="TOGXgayF-nrnIG1DAqdI-59">
          <mxGeometry relative="1" as="geometry">
            <mxPoint x="670" y="490" as="sourcePoint" />
            <mxPoint x="830" y="490" as="targetPoint" />
          </mxGeometry>
        </mxCell>
        <mxCell id="TOGXgayF-nrnIG1DAqdI-62" value="0, N" style="text;html=1;align=center;verticalAlign=middle;resizable=0;points=[];autosize=1;strokeColor=none;fillColor=none;" vertex="1" parent="1">
          <mxGeometry x="855" y="260" width="50" height="30" as="geometry" />
        </mxCell>
        <mxCell id="TOGXgayF-nrnIG1DAqdI-63" value="0, N" style="text;html=1;align=center;verticalAlign=middle;resizable=0;points=[];autosize=1;strokeColor=none;fillColor=none;" vertex="1" parent="1">
          <mxGeometry x="460" y="400" width="50" height="30" as="geometry" />
        </mxCell>
        <mxCell id="TOGXgayF-nrnIG1DAqdI-65" value="Pertence" style="shape=rhombus;perimeter=rhombusPerimeter;whiteSpace=wrap;html=1;align=center;" vertex="1" parent="1">
          <mxGeometry x="340" y="-20" width="120" height="60" as="geometry" />
        </mxCell>
        <mxCell id="TOGXgayF-nrnIG1DAqdI-66" value="" style="endArrow=none;html=1;rounded=0;entryX=0.5;entryY=1;entryDx=0;entryDy=0;startArrow=none;exitX=1;exitY=1;exitDx=0;exitDy=0;exitPerimeter=0;" edge="1" parent="1" source="TOGXgayF-nrnIG1DAqdI-82" target="TOGXgayF-nrnIG1DAqdI-65">
          <mxGeometry relative="1" as="geometry">
            <mxPoint x="400" y="220" as="sourcePoint" />
            <mxPoint x="700" y="190" as="targetPoint" />
          </mxGeometry>
        </mxCell>
        <mxCell id="TOGXgayF-nrnIG1DAqdI-67" value="Atração" style="whiteSpace=wrap;html=1;align=center;" vertex="1" parent="1">
          <mxGeometry x="350" y="-140" width="100" height="40" as="geometry" />
        </mxCell>
        <mxCell id="TOGXgayF-nrnIG1DAqdI-69" value="" style="endArrow=none;html=1;rounded=0;exitX=0.5;exitY=0;exitDx=0;exitDy=0;entryX=0.5;entryY=1;entryDx=0;entryDy=0;" edge="1" parent="1" source="TOGXgayF-nrnIG1DAqdI-65" target="TOGXgayF-nrnIG1DAqdI-67">
          <mxGeometry relative="1" as="geometry">
            <mxPoint x="540" y="-10" as="sourcePoint" />
            <mxPoint x="700" y="-10" as="targetPoint" />
          </mxGeometry>
        </mxCell>
        <mxCell id="TOGXgayF-nrnIG1DAqdI-70" value="Nome" style="ellipse;whiteSpace=wrap;html=1;align=center;" vertex="1" parent="1">
          <mxGeometry x="230" y="-210" width="100" height="40" as="geometry" />
        </mxCell>
        <mxCell id="TOGXgayF-nrnIG1DAqdI-71" value="Horário funcionamento" style="ellipse;whiteSpace=wrap;html=1;align=center;" vertex="1" parent="1">
          <mxGeometry x="250" y="-280" width="100" height="40" as="geometry" />
        </mxCell>
        <mxCell id="TOGXgayF-nrnIG1DAqdI-72" value="Altura" style="ellipse;whiteSpace=wrap;html=1;align=center;" vertex="1" parent="1">
          <mxGeometry x="460" y="-270" width="100" height="40" as="geometry" />
        </mxCell>
        <mxCell id="TOGXgayF-nrnIG1DAqdI-73" value="Idade mínima" style="ellipse;whiteSpace=wrap;html=1;align=center;" vertex="1" parent="1">
          <mxGeometry x="480" y="-200" width="100" height="40" as="geometry" />
        </mxCell>
        <mxCell id="TOGXgayF-nrnIG1DAqdI-75" value="" style="endArrow=none;html=1;rounded=0;exitX=1;exitY=1;exitDx=0;exitDy=0;entryX=0;entryY=0.5;entryDx=0;entryDy=0;" edge="1" parent="1" source="TOGXgayF-nrnIG1DAqdI-70" target="TOGXgayF-nrnIG1DAqdI-67">
          <mxGeometry relative="1" as="geometry">
            <mxPoint x="540" y="-110" as="sourcePoint" />
            <mxPoint x="700" y="-110" as="targetPoint" />
          </mxGeometry>
        </mxCell>
        <mxCell id="TOGXgayF-nrnIG1DAqdI-76" value="" style="endArrow=none;html=1;rounded=0;entryX=1;entryY=0.25;entryDx=0;entryDy=0;exitX=0.41;exitY=1.025;exitDx=0;exitDy=0;exitPerimeter=0;" edge="1" parent="1" source="TOGXgayF-nrnIG1DAqdI-73" target="TOGXgayF-nrnIG1DAqdI-67">
          <mxGeometry relative="1" as="geometry">
            <mxPoint x="500" y="-150" as="sourcePoint" />
            <mxPoint x="360" y="-110" as="targetPoint" />
          </mxGeometry>
        </mxCell>
        <mxCell id="TOGXgayF-nrnIG1DAqdI-77" value="Código" style="ellipse;whiteSpace=wrap;html=1;align=center;fontStyle=4;" vertex="1" parent="1">
          <mxGeometry x="350" y="-320" width="100" height="40" as="geometry" />
        </mxCell>
        <mxCell id="TOGXgayF-nrnIG1DAqdI-78" value="" style="endArrow=none;html=1;rounded=0;exitX=0.5;exitY=1;exitDx=0;exitDy=0;" edge="1" parent="1" source="TOGXgayF-nrnIG1DAqdI-77" target="TOGXgayF-nrnIG1DAqdI-67">
          <mxGeometry relative="1" as="geometry">
            <mxPoint x="540" y="-110" as="sourcePoint" />
            <mxPoint x="700" y="-110" as="targetPoint" />
          </mxGeometry>
        </mxCell>
        <mxCell id="TOGXgayF-nrnIG1DAqdI-79" value="" style="endArrow=none;html=1;rounded=0;exitX=0;exitY=1;exitDx=0;exitDy=0;entryX=0.75;entryY=0;entryDx=0;entryDy=0;" edge="1" parent="1" source="TOGXgayF-nrnIG1DAqdI-72" target="TOGXgayF-nrnIG1DAqdI-67">
          <mxGeometry relative="1" as="geometry">
            <mxPoint x="540" y="-110" as="sourcePoint" />
            <mxPoint x="700" y="-110" as="targetPoint" />
          </mxGeometry>
        </mxCell>
        <mxCell id="TOGXgayF-nrnIG1DAqdI-80" value="" style="endArrow=none;html=1;rounded=0;exitX=1;exitY=1;exitDx=0;exitDy=0;entryX=0.32;entryY=0.05;entryDx=0;entryDy=0;entryPerimeter=0;" edge="1" parent="1" source="TOGXgayF-nrnIG1DAqdI-71" target="TOGXgayF-nrnIG1DAqdI-67">
          <mxGeometry relative="1" as="geometry">
            <mxPoint x="540" y="-110" as="sourcePoint" />
            <mxPoint x="700" y="-110" as="targetPoint" />
          </mxGeometry>
        </mxCell>
        <mxCell id="TOGXgayF-nrnIG1DAqdI-81" value="0, N" style="text;html=1;align=center;verticalAlign=middle;resizable=0;points=[];autosize=1;strokeColor=none;fillColor=none;" vertex="1" parent="1">
          <mxGeometry x="360" y="-100" width="50" height="30" as="geometry" />
        </mxCell>
        <mxCell id="TOGXgayF-nrnIG1DAqdI-82" value="1, 1" style="text;html=1;align=center;verticalAlign=middle;resizable=0;points=[];autosize=1;strokeColor=none;fillColor=none;" vertex="1" parent="1">
          <mxGeometry x="360" y="180" width="40" height="30" as="geometry" />
        </mxCell>
        <mxCell id="TOGXgayF-nrnIG1DAqdI-83" value="" style="endArrow=none;html=1;rounded=0;exitX=0.5;exitY=0;exitDx=0;exitDy=0;entryX=0.5;entryY=1;entryDx=0;entryDy=0;" edge="1" parent="1" source="TOGXgayF-nrnIG1DAqdI-1" target="TOGXgayF-nrnIG1DAqdI-82">
          <mxGeometry relative="1" as="geometry">
            <mxPoint x="400" y="210" as="sourcePoint" />
            <mxPoint x="400" y="40" as="targetPoint" />
          </mxGeometry>
        </mxCell>
        <mxCell id="TOGXgayF-nrnIG1DAqdI-85" value="" style="endArrow=none;html=1;rounded=0;exitX=1;exitY=0.5;exitDx=0;exitDy=0;entryX=0;entryY=0.5;entryDx=0;entryDy=0;" edge="1" parent="1" source="TOGXgayF-nrnIG1DAqdI-36" target="TOGXgayF-nrnIG1DAqdI-56">
          <mxGeometry relative="1" as="geometry">
            <mxPoint x="540" y="480" as="sourcePoint" />
            <mxPoint x="700" y="480" as="targetPoint" />
          </mxGeometry>
        </mxCell>
        <mxCell id="TOGXgayF-nrnIG1DAqdI-86" value="Data/hora de entrada" style="ellipse;whiteSpace=wrap;html=1;align=center;fontStyle=4;" vertex="1" parent="1">
          <mxGeometry x="170" y="370" width="100" height="40" as="geometry" />
        </mxCell>
      </root>
    </mxGraphModel>
  </diagram>
</mxfile>
